<svg width="24" height="17" viewBox="0 0 24 17" fill="none" xmlns="http://www.w3.org/2000/svg">
<path d="M23.8866 8.22796L15.7079 0.112158C15.5575 -0.0373861 15.2851 -0.0373861 15.1347 0.112158L12.9135 2.3162C12.7619 2.46651 12.7623 2.70654 12.9143 2.85649L16.6786 6.5654H0.399981C0.179202 6.5654 0 6.73854 0 6.95185V10.0436C0 10.2569 0.179202 10.43 0.399981 10.43H16.6786L12.9143 14.139C12.7623 14.2889 12.7619 14.5289 12.9135 14.6793L15.1347 16.8833C15.2099 16.9579 15.3131 17 15.4211 17C15.5291 17 15.6323 16.9579 15.7079 16.8833L23.8866 8.76749C24.0378 8.61713 24.0378 8.37791 23.8866 8.22796Z" fill="#FF8B2E"/>
</svg>
