<svg width="22" height="16" viewBox="0 0 22 16" fill="none" xmlns="http://www.w3.org/2000/svg">
<path d="M21.896 7.74396L14.3989 0.105561C14.261 -0.0351869 14.0113 -0.0351869 13.8735 0.105561L11.8374 2.17995C11.6984 2.32142 11.6987 2.54733 11.8381 2.68847L15.2887 6.1792H0.366649C0.164268 6.1792 0 6.34215 0 6.54292V9.4528C0 9.65356 0.164268 9.81652 0.366649 9.81652H15.2887L11.8381 13.3073C11.6987 13.4484 11.6984 13.6743 11.8374 13.8158L13.8735 15.8902C13.9424 15.9604 14.037 16 14.136 16C14.235 16 14.3296 15.9604 14.3989 15.8902L21.896 8.25175C22.0347 8.11024 22.0347 7.88509 21.896 7.74396Z" fill="white"/>
</svg>
