<svg width="9" height="9" viewBox="0 0 9 9" fill="none" xmlns="http://www.w3.org/2000/svg">
<path d="M4.5 3.00004C4.5 1.34325 3.74377 0 2.8125 0C1.88088 0 1.125 1.34325 1.125 3.00004C1.125 3.72105 1.5795 4.33193 2.21557 4.57323L2.06246 8.24996C2.06246 8.66419 2.39827 9 2.8125 9C3.22673 9 3.56254 8.66419 3.56254 8.24996L3.40943 4.57356C4.04596 4.33193 4.5 3.72105 4.5 3.00004Z" fill="white"/>
<path d="M7.875 2.71879L7.78129 0H7.3125L7.21879 2.71879H6.84371L6.75 0H6.1875L6.09379 2.71879H5.71871L5.625 0H5.15621L5.0625 2.71879C5.0625 3.29074 5.4053 3.78068 5.89601 4.0005L5.71871 8.24996C5.71871 8.66419 6.05452 9 6.46875 9C6.88298 9 7.21879 8.66419 7.21879 8.24996L7.04149 4.0005C7.5322 3.78068 7.875 3.29074 7.875 2.71879Z" fill="white"/>
</svg>
