<svg width="40" height="40" viewBox="0 0 40 40" fill="none" xmlns="http://www.w3.org/2000/svg">
<rect width="40" height="40" rx="20" fill="white"/>
<path d="M24.436 22.3154C24.0062 22.3154 23.6588 22.6628 23.6588 23.0926V25.534C23.6588 25.963 23.3106 26.3112 22.8816 26.3112H14.3317C13.9027 26.3112 13.5545 25.963 13.5545 25.534V15.4297C13.5545 15.0007 13.9027 14.6525 14.3317 14.6525H18.8476C19.2774 14.6525 19.6248 14.3051 19.6248 13.8753C19.6248 13.4455 19.2774 13.098 18.8476 13.098H14.3317C13.0462 13.098 12 14.1442 12 15.4297V25.534C12 26.8196 13.0462 27.8657 14.3317 27.8657H22.8815C24.1671 27.8657 25.2132 26.8203 25.2132 25.534V23.0927C25.2133 22.6628 24.8658 22.3154 24.436 22.3154Z" fill="#FF8B2E"/>
<path d="M27.1304 12.9992C26.5661 12.435 25.8292 12.1505 25.087 12.1349C24.3058 12.1179 23.52 12.4008 22.9293 12.9922L17.6673 18.2542C16.8994 19.0253 16.4766 20.0482 16.4766 21.1347V22.8758C16.4766 23.3056 16.824 23.653 17.2538 23.653H18.9948C20.0814 23.653 21.1043 23.2302 21.8761 22.4615L27.1311 17.2065C28.2892 16.0476 28.2892 14.1589 27.1304 12.9992ZM20.7779 21.3617C20.3014 21.8366 19.6672 22.0986 18.9949 22.0986H18.0311V21.1348C18.0311 20.4624 18.293 19.8282 18.7671 19.3525L22.236 15.8836L24.246 17.8936L20.7779 21.3617ZM26.0313 16.1083L25.345 16.7946L23.335 14.7846L24.0213 14.0983C24.5763 13.5434 25.4779 13.5449 26.0313 14.0983C26.5847 14.6525 26.5847 15.5541 26.0313 16.1083Z" fill="#FF8B2E"/>
</svg>
