<svg width="30" height="31" viewBox="0 0 30 31" fill="none" xmlns="http://www.w3.org/2000/svg">
<g clip-path="url(#clip0_203_1097)">
<path d="M0 0.5V30.5H30V0.5H0ZM28.1443 28.6443H1.85567V2.35567H28.1443V28.6443Z" fill="#333333"/>
<path d="M10.0887 23.0978L15.0008 20.9023L19.913 23.0978L19.3428 17.7477L22.9489 13.7544L17.6844 12.6434L15.0008 7.9799L12.3173 12.6434L7.05273 13.7544L10.6588 17.7477L10.0887 23.0978ZM10.5913 14.9042L13.512 14.2878L15.0008 11.7005L16.4896 14.2878L19.4103 14.9042L17.4097 17.1196L17.726 20.0878L15.0008 18.8697L12.2756 20.0878L12.5918 17.1196L10.5913 14.9042Z" fill="#333333"/>
</g>
<defs>
<clipPath id="clip0_203_1097">
<rect width="30" height="30" fill="white" transform="translate(0 0.5)"/>
</clipPath>
</defs>
</svg>
