<svg width="50" height="44" viewBox="0 0 50 44" fill="none" xmlns="http://www.w3.org/2000/svg">
<path d="M50 14.7734V11.8438C50.015 7.97617 46.6823 4.85166 42.8238 5.12129C42.4705 2.3624 40.1093 0.222656 37.2559 0.222656C30.2382 0.445117 29.6519 10.3165 36.5393 11.4059C36.5093 11.604 36.5285 14.4935 36.5234 14.7735C36.5234 15.2419 36.5718 15.6991 36.6631 16.1408L17.7182 16.1417C19.1427 12.7293 18.0165 8.47002 15.0456 6.23086C15.0457 6.23086 13.9281 5.35918 13.9281 5.35918C12.6658 6.88066 8.10605 12.3279 2.98018 18.4881C1.56904 20.1825 0.623828 22.2389 0.246973 24.4348C-1.14863 32.7938 5.51797 38.2226 11.9312 40.8477H0V43.7773H50V40.8477H35.7547C42.3184 36.5806 45.2939 29.1312 43.7191 21.4944C47.222 21.2583 50 18.3351 50 14.7734ZM46.3691 9.6458C44.0563 11.6586 41.1446 12.3986 39.4531 12.6683V11.8438C39.4799 8.12031 44.242 6.65127 46.3691 9.6458ZM37.2559 8.52344C33.6932 8.37588 33.6941 3.29941 37.2559 3.15234C38.7887 3.14736 40.0264 4.45645 39.9374 5.98623C38.8833 6.58682 38.0066 7.46309 37.4057 8.51689C37.3557 8.51963 37.3059 8.52344 37.2559 8.52344ZM17.2873 19.0713L27.9297 19.0708V22.8785L17.3532 22.8772C16.823 22.8771 16.3039 22.6577 15.9285 22.2751C14.7412 21.0975 15.6447 19.0635 17.2873 19.0713ZM13.837 24.3266C14.7597 25.2672 16.0411 25.8067 17.3528 25.8068L28.9882 25.8083L27.5912 28.7383C24.5244 28.6495 21.8808 28.8892 19.1125 30.3266L11.12 25.9853L13.029 23.237C13.2426 23.6299 13.5133 23.9965 13.837 24.3266ZM14.2473 9.54932C15.7924 11.5058 15.7805 14.4989 14.1888 16.437L12.8424 18.3744L9.14062 15.6718C11.1785 13.2275 13.1149 10.9063 14.2473 9.54932ZM9.46992 36.3178C3.78652 33.1226 0.527442 26.414 5.23154 20.3626C5.87549 19.5894 6.56162 18.7658 7.26094 17.9268L11.1701 20.7809L6.84873 26.9992L19.1432 33.6772C21.1019 32.4189 23.3668 31.6479 25.7078 31.6681H27.4732L30.4145 40.1498C23.8625 42.0777 15.3488 39.7616 9.46992 36.3178ZM36.7368 36.3016C35.6548 37.3833 34.4314 38.2985 33.119 39.0071L30.0966 30.2912L33.6306 22.8793L30.8594 22.8789V19.0707L38.0755 19.0703C38.7708 19.9081 39.665 20.5747 40.6848 20.9984L41.0512 23.4848C41.7438 28.1854 40.1309 32.9767 36.7368 36.3016ZM43.2617 18.582C41.4529 18.582 39.9356 17.3142 39.5493 15.6206C41.2855 15.383 44.3201 14.7095 47.0703 12.8072V14.7734C47.0703 16.8735 45.3618 18.582 43.2617 18.582Z" fill="#333333"/>
</svg>
