<svg width="40" height="50" viewBox="0 0 40 50" fill="none" xmlns="http://www.w3.org/2000/svg">
<path d="M36.7172 39.3296V25.6935L31.6585 20.6347H24.6758V20.0387C27.0013 18.482 28.5356 15.8315 28.5356 12.8291V7.40889C29.1537 6.45371 29.5143 5.31709 29.5143 4.09727V0H17.3104C13.939 0 11.1961 2.74287 11.1961 6.11436V12.829C11.1961 15.8314 12.7305 18.482 15.056 20.0386V20.6346H8.07324L3.01455 25.6934V39.3295C1.22305 40.2823 0 42.168 0 44.3346C0 47.4586 2.54141 50 5.66543 50H34.0664C37.1903 50 39.7318 47.4586 39.7318 44.3346C39.7318 42.168 38.5087 40.2823 36.7172 39.3296ZM14.1257 6.11436C14.1257 4.3583 15.5544 2.92969 17.3104 2.92969H26.5846V4.09717C26.5846 5.85322 25.1559 7.28184 23.3998 7.28184H14.1257V6.11436ZM14.1257 12.829V10.2115H23.3998C24.1775 10.2115 24.9211 10.064 25.6061 9.79805V12.829C25.6061 15.9941 23.0311 18.5691 19.8659 18.5691C16.7008 18.5691 14.1257 15.9941 14.1257 12.829ZM21.7462 21.2929V23.3274C21.7462 24.3642 20.9026 25.2077 19.8659 25.2077C18.8292 25.2077 17.9856 24.3642 17.9856 23.3274V21.2929C18.5913 21.4273 19.2204 21.4988 19.8659 21.4988C20.5114 21.4988 21.1405 21.4273 21.7462 21.2929ZM18.4011 47.0703H5.66543C4.15684 47.0703 2.92969 45.8431 2.92969 44.3346C2.92969 42.8261 4.15684 41.5987 5.66543 41.5987H18.4011V47.0703ZM10.1161 28.6979V34.9836H16.5583C17.5744 34.9836 18.4011 35.8103 18.4011 36.8264C18.4011 37.8424 17.5744 38.669 16.5583 38.669H5.94424V26.9068L9.28672 23.5643H15.062C15.1859 26.1068 17.2933 28.1373 19.8659 28.1373C22.4386 28.1373 24.5459 26.1068 24.6698 23.5643H30.4451L33.7876 26.9068V38.669H23.1735C22.1574 38.669 21.3308 37.8424 21.3308 36.8263C21.3308 35.8103 22.1574 34.9836 23.1735 34.9836H29.6157V28.6979H26.686V32.0539H23.1735C21.8902 32.0539 20.7245 32.564 19.8659 33.3909C19.0073 32.5641 17.8416 32.0539 16.5583 32.0539H13.0458V28.6979H10.1161ZM34.0664 47.0703H21.3308V41.5988H34.0664C35.5749 41.5988 36.8021 42.8261 36.8021 44.3347C36.8021 45.8431 35.5749 47.0703 34.0664 47.0703Z" fill="#333333"/>
</svg>
