<svg width="9" height="10" viewBox="0 0 9 10" fill="none" xmlns="http://www.w3.org/2000/svg">
<path d="M4.5 0.5C2.01473 0.5 0 2.51473 0 5C0 7.48527 2.01473 9.5 4.5 9.5C6.98544 9.5 9 7.48527 9 5C9 2.51473 6.98544 0.5 4.5 0.5ZM4.5 8.6C2.51496 8.6 0.9 6.98504 0.9 5C0.9 3.01496 2.51496 1.4 4.5 1.4C6.48504 1.4 8.1 3.01496 8.1 5C8.1 6.98504 6.48504 8.6 4.5 8.6Z" fill="white"/>
<path d="M6.13708 4.68498L3.95475 3.42498C3.65469 3.25182 3.40918 3.39348 3.40918 3.73998V6.25998C3.40918 6.60648 3.65469 6.74832 3.95475 6.57498L6.13708 5.31498C6.43713 5.14182 6.43713 4.85814 6.13708 4.68498Z" fill="white"/>
</svg>
