<svg width="80" height="80" viewBox="0 0 80 80" fill="none" xmlns="http://www.w3.org/2000/svg">
<path d="M57.7969 70.2344C52.5781 73.3281 46.4844 75.0938 40 75.0938C20.6406 75.1094 4.89062 59.3594 4.89062 40C4.89062 20.6406 20.6406 4.89062 40 4.89062C59.3594 4.89062 75.1094 20.6406 75.1094 40C75.1094 46.5 73.3281 52.5781 70.25 57.7969L73.8281 61.375C77.8438 55.0469 80 47.6875 80 40C80 29.3125 75.8438 19.2656 68.2812 11.7188C60.7344 4.15625 50.6875 0 40 0C29.3125 0 19.2656 4.15625 11.7188 11.7188C4.15625 19.2656 0 29.3125 0 40C0 50.6875 4.15625 60.7344 11.7188 68.2812C19.2812 75.8438 29.3125 80 40 80C47.6875 80 55.0469 77.8438 61.3906 73.8281L57.7969 70.2344Z" fill="white"/>
<path d="M26.6719 19.4375V60.5781L62.2969 40.0156L26.6719 19.4375ZM31.5782 27.9219L52.5 40L31.5625 52.0781V27.9219H31.5782Z" fill="white"/>
</svg>
