<svg width="40" height="40" viewBox="0 0 40 40" fill="none" xmlns="http://www.w3.org/2000/svg">
<circle cx="20" cy="20" r="20" fill="#FF8B2E"/>
<path d="M20 12C15.5885 12 12 15.5889 12 20C12 24.4111 15.5885 28 20 28C24.4115 28 28 24.4111 28 20C28 15.5889 24.4115 12 20 12ZM23.2356 22.7643L22.7644 23.2356C22.6342 23.3658 22.4232 23.3658 22.2929 23.2356L19.5285 20.4712C19.4036 20.3462 19.3333 20.1767 19.3333 20V14.6667C19.3333 14.4825 19.4826 14.3333 19.6667 14.3333H20.3333C20.5174 14.3333 20.6667 14.4825 20.6667 14.6667V19.7239L23.2357 22.2929C23.3658 22.4231 23.3658 22.6342 23.2356 22.7643Z" fill="white"/>
</svg>
