<svg width="40" height="40" viewBox="0 0 40 40" fill="none" xmlns="http://www.w3.org/2000/svg">
<circle cx="20" cy="20" r="20" fill="#FF8B2E"/>
<path d="M27.3949 25.0029C26.2871 24.0761 23.029 21.3422 21.5353 20.009C22.3444 19.2671 23.4766 18.1637 24.5778 17.0903C25.8386 15.8616 27.0296 14.7005 27.5697 14.2445C27.8431 14.0132 28 13.6738 28 13.3134C28 12.862 27.7653 12.4616 27.3721 12.2427C26.9808 12.0251 26.5202 12.0358 26.1396 12.2723C24.9111 13.0349 20 16.5645 20 17.3255C20 17.55 19.9909 17.814 19.911 18.1136C19.5438 17.4834 19.3334 16.9061 19.3334 16.6583C19.3334 16.1837 17.7217 14.6377 14.543 12.0625C14.4112 11.9557 14.1899 11.9941 14.0691 12.1146C13.9389 12.245 13.9389 12.456 14.0691 12.5863L17.2357 15.7553C17.3656 15.8853 17.3656 16.097 17.2357 16.227C17.1094 16.3527 16.8907 16.3527 16.7644 16.227L13.5978 13.058C13.4675 12.9277 13.2566 12.9277 13.1264 13.058L13.0691 13.1154C12.9389 13.2457 12.9389 13.4568 13.0691 13.5871L16.2358 16.7561C16.3656 16.886 16.3656 17.0978 16.2358 17.2277C16.1095 17.3535 15.8907 17.3535 15.7644 17.2277L12.5978 14.0588C12.4682 13.9291 12.2286 13.9575 12.0978 14.0874C11.977 14.208 11.9669 14.4005 12.0743 14.5331C14.6476 17.7141 16.1925 19.3269 16.6667 19.3269C16.9497 19.3269 17.6612 19.6009 18.3926 20.0728C16.9145 21.3876 13.9022 23.9177 12.6059 25.0023C12.2208 25.3245 12.0001 25.7984 12.0001 26.3027C12.0001 27.2386 12.7609 27.9999 13.6961 27.9999C14.1997 27.9999 14.6736 27.7787 14.9955 27.3931C16.1094 26.0604 18.7144 22.9544 20.0002 21.514C21.327 23.0011 24.0757 26.2817 25.0056 27.3943C25.3272 27.7794 25.8008 27.9999 26.3041 27.9999C27.2393 27.9999 28 27.2386 28 26.3027C28 25.7984 27.7793 25.3248 27.3949 25.0029Z" fill="white"/>
</svg>
