<svg width="40" height="40" viewBox="0 0 40 40" fill="none" xmlns="http://www.w3.org/2000/svg">
<circle cx="20" cy="20" r="20" fill="#FF8B2E"/>
<path d="M25.4546 25.0909H14.5483C14.3477 25.0909 14.185 25.2536 14.1846 25.4542L14.1832 26.5146C14.1829 26.9112 14.337 27.2841 14.6172 27.5646C14.8977 27.8455 15.2702 28 15.6669 28H24.3345C25.1527 28 25.8182 27.3345 25.8182 26.5163V25.4545C25.8182 25.2536 25.6556 25.0909 25.4546 25.0909Z" fill="white"/>
<path d="M24 13.4546C23.7774 13.4546 23.5486 13.4769 23.3065 13.522C22.4744 12.5518 21.282 12 20 12C17.5938 12 15.6364 13.9574 15.6364 16.3636C15.6364 16.5643 15.4734 16.7273 15.2727 16.7273C15.0721 16.7273 14.9091 16.5643 14.9091 16.3636C14.9091 15.5763 15.0902 14.8146 15.4474 14.0998C15.511 13.9727 15.4947 13.8203 15.4059 13.7095C15.3171 13.5994 15.1719 13.5504 15.0341 13.5842C13.2475 14.0298 12 15.6214 12 17.4545C12 18.9659 12.8523 20.3398 14.1903 21.0192L14.1864 23.9996C14.1864 24.0959 14.2244 24.1886 14.2926 24.2571C14.3611 24.3253 14.4535 24.3636 14.5501 24.3636H25.4546C25.6556 24.3636 25.8182 24.201 25.8182 24V21.0138C27.1513 20.3327 28 18.9609 28 17.4545C28 15.2489 26.2056 13.4546 24 13.4546ZM17.3217 22.0994C17.2539 22.1548 17.1722 22.1818 17.0913 22.1818C16.9862 22.1818 16.8818 22.1364 16.8097 22.049C16.6897 21.9024 15.6364 20.5913 15.6364 19.6364C15.6364 19.4354 15.799 19.2727 16 19.2727C16.201 19.2727 16.3637 19.4354 16.3637 19.6364C16.3637 20.1627 16.9823 21.1122 17.3722 21.5874C17.4993 21.7429 17.4769 21.9719 17.3217 22.0994ZM20.3636 21.8182C20.3636 22.0192 20.201 22.1818 20 22.1818C19.799 22.1818 19.6364 22.0192 19.6364 21.8182V19.6364C19.6364 19.4354 19.799 19.2727 20 19.2727C20.201 19.2727 20.3637 19.4354 20.3637 19.6364L20.3636 21.8182ZM23.1903 22.049C23.1182 22.1364 23.0142 22.1818 22.9091 22.1818C22.8278 22.1818 22.7461 22.1548 22.6786 22.0994C22.5235 21.9719 22.5007 21.7429 22.6278 21.5877C23.0178 21.1115 23.6364 20.1609 23.6364 19.6364C23.6364 19.4354 23.799 19.2727 24 19.2727C24.201 19.2727 24.3637 19.4354 24.3637 19.6364C24.3637 20.5913 23.3104 21.9024 23.1903 22.049Z" fill="white"/>
</svg>
