<svg width="60" height="60" viewBox="0 0 60 60" fill="none" xmlns="http://www.w3.org/2000/svg">
<path d="M38.7891 21.0938V15.8203C38.7891 7.09699 31.6921 0 22.9688 0C14.2454 0 7.14844 7.09699 7.14844 15.8203V28.3594H3.63281V60H42.3047V52.9688H56.3672V35.3906H42.3047V28.3594H17.6953V15.8203C17.6953 12.9125 20.061 10.5469 22.9688 10.5469C25.8765 10.5469 28.2422 12.9125 28.2422 15.8203V21.0938H38.7891ZM52.8516 49.4531H28.2422V38.9062H52.8516V49.4531ZM38.7891 35.3906H24.7266V52.9688H38.7891V56.4844H7.14844V31.875H38.7891V35.3906ZM22.9688 7.03125C18.1225 7.03125 14.1797 10.974 14.1797 15.8203V28.3594H10.6641V15.8203C10.6641 9.03551 16.1839 3.51562 22.9688 3.51562C29.7536 3.51562 35.2734 9.03551 35.2734 15.8203V17.5781H31.7578V15.8203C31.7578 10.974 27.815 7.03125 22.9688 7.03125Z" fill="white"/>
<path d="M31.7578 42.4219H35.2734V45.9375H31.7578V42.4219Z" fill="white"/>
<path d="M38.7891 42.4219H42.3047V45.9375H38.7891V42.4219Z" fill="white"/>
<path d="M45.8203 42.4219H49.3359V45.9375H45.8203V42.4219Z" fill="white"/>
<path d="M45.8203 21.0938H52.8516V24.6094H45.8203V21.0938Z" fill="white"/>
<path d="M42.085 17.0663L47.0561 12.0952L49.5416 14.5807L44.5705 19.5518L42.085 17.0663Z" fill="white"/>
</svg>
