<svg width="50" height="50" viewBox="0 0 50 50" fill="none" xmlns="http://www.w3.org/2000/svg">
<path d="M14.1215 14.8354H7.19082C4.76768 14.8354 2.79629 16.8068 2.79629 19.23C2.79629 21.6531 4.76768 23.6245 7.19082 23.6245H15.2187V29.9597H10.3847C7.70771 29.9597 5.52988 32.1375 5.52988 34.8145V47.0703H0V50H50V47.0703H46.3255C46.6224 46.6763 46.913 46.2767 47.2036 45.8781L28.7699 30.7322V4.39453C28.7699 1.97139 26.7985 0 24.3754 0C21.9522 0 19.9809 1.97139 19.9809 4.39453V7.77236H19.0092C16.3141 7.77236 14.1215 9.96504 14.1215 12.6601V14.8354ZM40.5416 47.0703C39.6081 47.0626 38.6357 46.8026 37.8682 46.2585L36.5265 45.1784L38.5507 42.5602L43.0311 46.2414C42.2979 46.7657 41.4258 47.0481 40.5416 47.0703ZM20.977 32.8894H26.7806L36.2861 40.6994L34.244 43.3409L20.977 32.8894ZM22.9105 4.39453C22.9105 3.58682 23.5677 2.92969 24.3754 2.92969C25.1831 2.92969 25.8402 3.58682 25.8402 4.39453V18.5608C25.8402 19.3686 25.1831 20.0257 24.3754 20.0257C23.5677 20.0257 22.9105 19.3686 22.9105 18.5608V7.77236V4.39453ZM17.0512 12.6602C17.0512 11.5805 17.9296 10.7021 19.0092 10.7021H19.9809V16.5419H19.0092C17.9295 16.5419 17.0512 15.6635 17.0512 14.5839V12.6602ZM5.72598 19.23C5.72598 18.4223 6.38311 17.7651 7.19082 17.7651H15.3032C15.6524 18.1713 16.0666 18.5197 16.5302 18.7938C16.1364 19.3818 15.825 20.022 15.6042 20.6948H7.19082C6.38311 20.6948 5.72598 20.0377 5.72598 19.23ZM18.1483 23.097C18.1483 21.7032 18.7618 20.379 19.8059 19.4715H20.0764C20.497 21.459 22.2645 22.9553 24.3754 22.9553C24.8889 22.9553 25.3817 22.8659 25.8402 22.7033V29.9596H18.1482V23.097H18.1483ZM10.3847 32.8894H16.1837L19.9772 35.819H11.3893V38.5186H8.45957V34.8145C8.45957 33.7529 9.32314 32.8894 10.3847 32.8894ZM8.45957 41.4482H11.3893V42.6792C11.3893 44.589 10.1647 46.2182 8.45957 46.8228V41.4482ZM14.3189 42.6792V38.7487L23.7658 38.7448L34.2046 47.0703H12.8527C13.7729 45.8459 14.3189 44.3252 14.3189 42.6792Z" fill="#FF8B2E"/>
</svg>
