<svg width="50" height="50" viewBox="0 0 50 50" fill="none" xmlns="http://www.w3.org/2000/svg">
<path d="M44.1316 2.73438V0H41.2019V2.73438H35.2997V0H32.37V2.73438H26.4677V0H23.538V2.73438H17.6358V0H14.7061V2.73438H8.80386V0H5.87417V2.73438H0.0090332V49.9999H49.991V2.73438H44.1316ZM47.0613 47.0702H2.93872V5.66406H5.87427V8.39844H8.80395V5.66406H14.7062V8.39844H17.6359V5.66406H23.5381V8.39844H26.4678V5.66406H32.3701V8.39844H35.2997V5.66406H41.202V8.39844H44.1317V5.66406H47.0614V47.0702H47.0613Z" fill="#FF8B2E"/>
<path d="M5.86841 44.1405H44.1316V11.3281H5.86841V44.1405ZM8.7981 14.2578H41.2019V41.2108H8.7981V14.2578Z" fill="#FF8B2E"/>
<path d="M38.1636 22.9109L36.9019 22.8186C36.7194 22.8053 33.2554 22.581 29.8786 24.2976C28.7047 20.6957 26.0961 18.405 25.9575 18.2854L25.0001 17.4585L24.0426 18.2854C23.9041 18.405 21.2956 20.6958 20.1216 24.2976C16.7447 22.5809 13.2807 22.8053 13.0982 22.8186L11.8365 22.9109L11.7442 24.1727C11.7273 24.403 11.3732 29.8591 15.0094 33.7711C17.3336 36.2715 20.695 37.5393 25.0002 37.5393C29.3053 37.5393 32.6667 36.2716 34.9909 33.7711C38.627 29.8591 38.2729 24.403 38.2561 24.1727L38.1636 22.9109ZM22.4913 27.5122C22.5795 24.8754 24.0085 22.7127 25.0039 21.5167C25.9957 22.7026 27.4115 24.8441 27.5082 27.4882C27.5876 29.6601 26.7448 31.8143 25.0002 33.908C23.2619 31.822 22.4189 29.6758 22.4913 27.5122ZM17.1716 31.794C15.3695 29.8672 14.8507 27.3274 14.7089 25.7779C15.9611 25.8896 17.8585 26.2499 19.5659 27.3493C19.5655 27.36 19.5647 27.3706 19.5643 27.3812C19.478 29.7451 20.1629 32.0425 21.6039 34.2434C19.7756 33.8094 18.2913 32.9912 17.1716 31.794ZM32.8449 31.7765C31.7233 32.9831 30.2335 33.8071 28.3964 34.2432C29.8374 32.0423 30.5222 29.745 30.4359 27.3812C30.4355 27.3714 30.4348 27.3616 30.4344 27.3518C32.137 26.2605 34.0417 25.8981 35.2967 25.7833C35.1594 27.3231 34.6463 29.8385 32.8449 31.7765Z" fill="#FF8B2E"/>
</svg>
