<svg width="50" height="46" viewBox="0 0 50 46" fill="none" xmlns="http://www.w3.org/2000/svg">
<path d="M46.875 36.4277V10.7441H29.2266C29.0409 10.6062 28.848 10.4776 28.6488 10.3583C29.1194 9.65859 29.3945 8.81689 29.3945 7.91211V5.37305C29.3945 2.9499 27.4231 0.978516 25 0.978516C22.5769 0.978516 20.6055 2.9499 20.6055 5.37305V7.91211C20.6055 8.83496 20.8921 9.69189 21.38 10.3998C21.2052 10.5073 21.0353 10.6221 20.8711 10.7441H3.125V36.4277H0V38.9407C0 42.2937 2.72783 45.0215 6.08076 45.0215H43.9192C47.2723 45.0215 50.0001 42.2937 50.0001 38.9407V36.4277H46.875ZM31.5625 20.1191C32.3702 20.1191 33.0273 20.7763 33.0273 21.584C33.0273 22.3917 32.3702 23.0488 31.5625 23.0488H26.8727L27.7542 21.9481C28.6852 20.7858 30.0732 20.1191 31.5625 20.1191ZM29.1016 17.5845C27.6886 18.0516 26.4264 18.9195 25.4675 20.1168L25 20.7004L24.5325 20.1167C23.5957 18.9471 22.3696 18.0914 20.9961 17.617V16.3105C20.9961 14.1028 22.7923 12.3066 25 12.3066C25.0327 12.3066 25.0651 12.3049 25.0977 12.3042V12.3066C27.3054 12.3066 29.1016 14.1028 29.1016 16.3105V17.5845ZM18.4375 20.1191C19.9268 20.1191 21.3148 20.7858 22.2458 21.9481L23.1273 23.0488H18.4375C17.6298 23.0488 16.9727 22.3917 16.9727 21.584C16.9727 20.7763 17.6297 20.1191 18.4375 20.1191ZM23.5352 7.91211V5.37305C23.5352 4.56533 24.1923 3.9082 25 3.9082C25.8077 3.9082 26.4648 4.56533 26.4648 5.37305V7.91211C26.4648 8.71982 25.8077 9.37695 25 9.37695C24.1923 9.37695 23.5352 8.71982 23.5352 7.91211ZM6.05469 13.6738H18.5886C18.2528 14.4872 18.0664 15.3773 18.0664 16.3105V17.2062C15.8164 17.3954 14.043 19.2859 14.043 21.584C14.043 24.0071 16.0144 25.9785 18.4375 25.9785H31.5625C33.9856 25.9785 35.957 24.0071 35.957 21.584C35.957 19.3192 34.2348 17.4495 32.0312 17.2147V16.3105C32.0312 15.3773 31.8448 14.4872 31.5091 13.6738H43.9453V36.4277H6.05469V13.6738ZM43.9191 42.0918H6.08076C4.48447 42.0918 3.16162 40.8986 2.95723 39.3574H47.043C46.8383 40.8986 45.5154 42.0918 43.9191 42.0918Z" fill="#FF8B2E"/>
<path d="M14.7461 30.5684H17.6758V33.498H14.7461V30.5684Z" fill="#FF8B2E"/>
<path d="M20.6055 30.5684H23.5352V33.498H20.6055V30.5684Z" fill="#FF8B2E"/>
<path d="M26.4648 30.5684H29.3945V33.498H26.4648V30.5684Z" fill="#FF8B2E"/>
<path d="M32.3242 30.5684H35.2539V33.498H32.3242V30.5684Z" fill="#FF8B2E"/>
</svg>
