<svg width="30" height="24" viewBox="0 0 30 24" fill="none" xmlns="http://www.w3.org/2000/svg">
<path d="M9.77334 23.2626C20.3871 23.2626 26.1913 14.4695 26.1913 6.84467C26.1913 6.59493 26.1862 6.34622 26.175 6.09889C27.3016 5.28431 28.2807 4.26781 29.0534 3.11079C28.0195 3.57053 26.9067 3.87961 25.7397 4.01945C26.9309 3.3048 27.8456 2.17478 28.277 0.827698C27.1621 1.48868 25.9273 1.9689 24.6129 2.22827C23.5599 1.10668 22.0606 0.405273 20.4007 0.405273C17.2143 0.405273 14.63 2.98936 14.63 6.17474C14.63 6.62778 14.6808 7.06809 14.7797 7.49052C9.98387 7.2492 5.73107 4.95322 2.88538 1.46168C2.39003 2.31427 2.10417 3.30497 2.10417 4.36206C2.10417 6.36376 3.12291 8.13138 4.67191 9.16508C3.72524 9.13601 2.83601 8.87612 2.05859 8.44355C2.05773 8.4678 2.05773 8.49137 2.05773 8.51717C2.05773 11.3118 4.0467 13.6451 6.68737 14.1738C6.20234 14.3057 5.69202 14.3768 5.16571 14.3768C4.79454 14.3768 4.43266 14.3403 4.0811 14.2727C4.8157 16.5654 6.94606 18.2338 9.47166 18.2806C7.49662 19.8285 5.00868 20.7506 2.30472 20.7506C1.83964 20.7506 1.37989 20.724 0.928223 20.6706C3.48203 22.3075 6.51451 23.2628 9.77351 23.2628" fill="white"/>
</svg>
